<?xml version="1.0" standalone="no"?>
<!DOCTYPE svg PUBLIC "-//W3C//DTD SVG 20010904//EN"
 "http://www.w3.org/TR/2001/REC-SVG-20010904/DTD/svg10.dtd">
<svg version="1.0" xmlns="http://www.w3.org/2000/svg"
 width="78.000000pt" height="78.000000pt" viewBox="0 0 78.000000 78.000000"
 preserveAspectRatio="xMidYMid meet">
<metadata>
Created by potrace 1.11, written by Peter Selinger 2001-2013
</metadata>
<g transform="translate(0.000000,78.000000) scale(0.100000,-0.100000)"
fill="#000000" stroke="none">
<path d="M0 390 l0 -390 390 0 390 0 0 390 0 390 -390 0 -390 0 0 -390z m741
333 c11 -79 -7 -98 -65 -68 -60 31 -126 11 -126 -39 0 -26 0 -26 30 -11 24 12
35 13 51 4 12 -6 42 -14 67 -18 l46 -6 4 -70 c2 -47 -1 -76 -10 -88 -12 -17
-16 -17 -50 -2 -44 18 -109 20 -126 3 -7 -7 -12 -23 -12 -36 0 -19 4 -23 18
-17 38 16 50 16 87 1 20 -9 49 -16 64 -16 25 0 26 -3 29 -57 6 -109 -10 -130
-72 -98 -60 32 -130 10 -124 -39 3 -25 4 -25 31 -11 22 11 34 12 49 4 11 -6
41 -14 66 -18 46 -6 46 -6 47 -46 1 -22 0 -44 -2 -50 -3 -8 -241 -10 -700 -5
-9 0 -13 17 -13 50 0 45 3 51 29 65 26 13 33 13 65 0 69 -29 136 -14 136 30 0
28 -11 31 -39 13 -15 -9 -28 -8 -63 5 -51 20 -99 22 -116 5 -9 -9 -12 7 -12
74 0 85 0 86 28 97 29 12 77 6 88 -10 9 -15 76 -10 96 8 18 16 25 63 10 63 -4
0 -17 -7 -29 -15 -19 -13 -25 -13 -59 1 -25 10 -56 14 -86 12 l-48 -5 0 78 c0
77 0 79 31 94 22 12 34 13 44 5 20 -17 109 -24 133 -11 14 7 22 21 22 36 0 28
-11 31 -39 13 -15 -9 -28 -8 -63 5 -51 20 -99 22 -116 5 -9 -9 -12 0 -12 40
l0 52 354 0 354 0 3 -27z"/>
<path d="M308 659 c-11 -6 -18 -22 -18 -39 0 -34 2 -35 34 -15 20 14 27 14 59
0 44 -18 108 -20 125 -3 7 7 12 23 12 36 0 19 -4 23 -17 17 -39 -16 -51 -16
-88 -1 -43 18 -82 20 -107 5z"/>
<path d="M302 428 c-7 -7 -12 -23 -12 -36 0 -19 4 -23 18 -17 39 16 52 16 83
1 65 -32 134 -12 127 38 -3 25 -4 25 -31 11 -24 -12 -32 -12 -62 1 -42 17
-107 18 -123 2z"/>
<path d="M308 206 c-10 -7 -18 -25 -18 -40 0 -30 3 -31 34 -11 20 14 27 14 59
0 71 -29 137 -14 137 31 0 21 -4 25 -17 19 -40 -16 -53 -16 -84 -1 -39 19 -88
20 -111 2z"/>
</g>
</svg>
